<?xml version="1.0" encoding="UTF-8" standalone="no"?>
<!-- Created with Inkscape (http://www.inkscape.org/) -->

<svg
   version="1.1"
   id="svg1"
   width="1024"
   height="1024"
   viewBox="0 0 1024 1024"
   xmlns="http://www.w3.org/2000/svg"
   xmlns:svg="http://www.w3.org/2000/svg">
  <defs
     id="defs1" />
  <g
     id="g1">
    <g
       id="g3"
       transform="matrix(1.5298759,0,0,1.5298759,-271.76721,-298.14911)">
      <path
         style="fill:#000000"
         d="m 378.36068,834.93863 c -13.74198,-1.33183 -31.71026,-4.78552 -41.51917,-7.98041 -12.62214,-4.11119 -22.59679,-9.98437 -32.09663,-18.8988 -14.76567,-13.85578 -22.28084,-28.19654 -26.33402,-50.25169 -2.22559,-12.11043 -1.47901,-36.02264 1.5707,-50.30773 6.4027,-29.99083 23.03022,-65.18997 44.31609,-93.81367 C 348.76455,580.785 372.88783,556.3157 424.5,512.04667 c 42.83455,-36.74024 62.57124,-56.22021 72.88225,-71.93427 7.45305,-11.3585 10.06531,-17.27623 11.65441,-26.40149 2.8156,-16.16839 -4.74023,-32.01031 -18.85571,-39.53378 -6.47356,-3.45037 -8.18052,-3.85243 -8.18174,-1.92713 -4.3e-4,0.6875 -1.28006,3.95409 -2.8436,7.25909 -4.7804,10.10472 -12.85143,15.68984 -25.31924,17.52084 -27.4409,4.02991 -35.57826,6.27698 -52.51841,14.50256 -21.54218,10.46018 -40.59762,27.25736 -60.65585,53.46751 -13.99058,18.28154 -19.09916,23.37369 -27.29835,27.21055 -5.1852,2.42645 -8.28763,3.15008 -15.18991,3.54298 -14.46062,0.82316 -25.99905,-2.88523 -38.2081,-12.27989 -19.71432,-15.16981 -30.65639,-44.29196 -27.04538,-71.98082 4.87371,-37.37119 24.37104,-73.84697 57.37892,-107.34501 33.16525,-33.65777 76.6048,-58.18183 125.93254,-71.096 38.13196,-9.98307 74.42085,-12.31962 108.26817,-6.97112 44.22761,6.98877 79.29653,22.48574 110.11188,48.65846 6.4855,5.5084 18.55067,19.44063 24.73165,28.55882 6.24784,9.21682 14.72091,26.674 18.54187,38.20203 5.61358,16.93648 6.61709,24.01868 6.58882,46.5 -0.0237,18.85036 -0.24437,21.39673 -2.74214,31.64361 -9.97481,40.92085 -31.75935,73.54184 -86.71907,129.85639 -33.37912,34.20195 -41.36894,42.70728 -48.84836,52 C 538.75569,610.7052 531,624.48393 531,628.44148 c 0,10.06606 25.97444,10.50251 58,0.97458 38.10466,-11.33653 75.88106,-32.23488 109,-60.30011 3.575,-3.02948 15.05,-13.93994 25.5,-24.24546 19.83682,-19.56256 23.18277,-21.95058 32.77046,-23.38834 5.44532,-0.81658 15.39078,1.53416 20.12354,4.75645 12.41943,8.45578 17.64657,27.94082 15.52444,57.87001 -2.10952,29.75154 -12.89471,64.08224 -29.65329,94.39042 -19.4239,35.12845 -49.9411,66.76209 -86.76515,89.93934 -11.36579,7.15369 -38.95613,21.14938 -53.14509,26.9588 C 573.12226,815.55458 511.99857,829.27511 448,834.53488 c -18.45579,1.5168 -55.91397,1.73398 -69.63932,0.40375 z m 73.89599,-24.44021 c 58.01289,-5.03178 121.6482,-19.86361 165.38446,-38.54707 24.75435,-10.57467 51.28581,-25.95127 70.13324,-40.6465 17.32236,-13.50613 35.95345,-34.36093 47.78566,-53.48911 C 756.93086,643.26722 769,605.45058 769,573.03712 c 0,-19.69123 -2.40218,-27.21067 -8.89836,-27.85417 -2.94338,-0.29157 -4.62327,1.07672 -20.90113,17.02423 -20.25345,19.84241 -27.12395,25.87576 -43.20051,37.93669 -34.88153,26.16878 -71.57714,44.21913 -109.5,53.8624 -40.09397,10.19536 -67.06418,6.5293 -75.64057,-10.28182 -3.20858,-6.28933 -3.65444,-17.76238 -1.0241,-26.35225 5.33031,-17.40713 16.95303,-31.75541 66.725,-82.3722 38.63318,-39.28893 58.289,-64.33966 71.01,-90.5 11.49058,-23.63003 15.16543,-39.79918 14.08117,-61.95641 C 659.19401,332.32399 630.53847,291.69872 580.5,267.49421 531.76271,243.91911 475.56723,240.49746 416.14972,257.4872 373.64909,269.63975 337.33226,290.75959 306.9357,321 256.655,371.02239 241.26357,432.65111 271.67545,462.18531 279.11127,469.40653 285.9822,472.5 294.5855,472.5 c 6.18404,0 7.61602,-0.36765 11.25541,-2.88975 2.30789,-1.59937 8.23762,-8.2974 13.2794,-15 27.64466,-36.75109 50.29518,-55.74961 81.45614,-68.32275 14.44057,-5.82663 23.84404,-8.11721 43.88771,-10.69056 12.01224,-1.54222 14.94757,-3.28185 14.33564,-8.49605 -0.52865,-4.50456 -3.73847,-5.29512 -18.7998,-4.63029 -35.50904,1.56742 -67.39946,9.87885 -101,26.32308 -7.425,3.63383 -13.95,6.78439 -14.5,7.00125 -2.58061,1.0175 9.96722,-9.14504 20.38234,-16.50775 24.83987,-17.55994 53.08531,-29.42133 83.11766,-34.90441 14.54337,-2.65522 39.85497,-2.46872 51.20926,0.37733 C 512.1814,353.02483 533,376.43708 533,405.25226 533,419.46181 528.41685,435.26468 520.74731,447.5 510.42295,463.97059 491.00925,484.59199 461,510.9641 c -5.225,4.59173 -18.05,15.86737 -28.5,25.05698 -10.45,9.18961 -21.25,18.64456 -24,21.01101 -9.02892,7.76963 -33.46999,32.24289 -43.91007,43.96791 -47.23241,53.04565 -70.63976,110.0457 -63.0541,153.54515 3.68578,21.13582 14.93991,37.07464 32.43891,45.94205 21.97866,11.13743 64.14788,14.70657 118.28193,10.01122 z"
         id="path1" />
      <path
         style="fill:#f27823;fill-opacity:1;fill-rule:evenodd;stroke-width:0;stroke-linecap:square;stroke-linejoin:round;stroke-miterlimit:0;paint-order:markers stroke fill"
         d="m 382.08435,810.66814 c -30.92607,-2.73883 -49.31017,-9.22804 -61.92913,-21.85974 -9.59971,-9.60941 -14.26908,-19.14276 -17.56161,-35.8552 -7.35484,-37.33215 12.61511,-89.71183 53.2743,-139.73453 15.50449,-19.07507 47.67849,-50.65864 83.05914,-81.53493 37.13339,-32.4059 64.40641,-59.21288 76.03387,-74.7346 34.95291,-46.6593 19.40996,-98.2581 -33.86963,-112.43896 -11.52841,-3.0684 -43.04665,-2.99426 -58.20559,0.1369 -33.09696,6.83637 -66.19035,22.7381 -92.35529,44.37771 -4.21261,3.48402 -7.33958,6.6543 -6.94882,7.04506 0.39076,0.39075 9.23408,-3.20538 19.65183,-7.99141 32.07475,-14.7355 59.27911,-22.02947 91.1318,-24.43403 17.25982,-1.30294 22.9504,-0.28607 22.9504,4.10109 0,4.0286 -3.55515,5.7971 -14.39105,7.15876 -25.46594,3.20012 -53.82219,13.518 -73.03973,26.57669 -11.88651,8.07712 -32.91106,29.19651 -48.61919,48.83854 -8.73732,10.92544 -16.09413,18.56233 -19.06838,19.7943 -15.18284,6.28893 -36.07992,-8.45858 -42.57729,-30.0477 -10.71463,-35.60199 14.681,-90.42947 59.91007,-129.34191 34.34421,-29.54774 74.68717,-48.8448 122.06128,-58.38499 21.8754,-4.40527 66.54296,-5.18292 85.28103,-1.48472 70.39714,13.89377 119.58353,55.72189 131.1027,111.48978 5.65328,27.36933 2.00269,54.39984 -10.83662,80.23882 -14.58474,29.35163 -30.58399,49.53337 -79.3009,100.03157 -45.89864,47.57689 -56.86321,62.16412 -60.03765,79.87391 -3.17066,17.68862 6.20555,32.5649 22.74894,36.09346 18.77818,4.00522 43.59689,0.83849 74.67481,-9.52811 47.59056,-15.87467 86.0943,-40.03985 129.3767,-81.1976 23.50576,-22.35192 26.86854,-24.11715 30.86002,-16.19935 2.80049,5.55523 2.5812,36.45635 -0.35742,50.36868 -5.93167,28.08228 -20.571,61.86351 -36.72582,84.7473 -11.61252,16.44948 -39.27176,43.30811 -55.99524,54.37442 -52.03307,34.4315 -123.86752,57.65434 -207.07124,66.94255 -28.26794,3.15562 -64.15372,4.2673 -83.22629,2.57824 z"
         id="path2" />
    </g>
  </g>
</svg>
